# xmcd
# Track frame offsets:
# 150
# 15541
# 26341
# 38265
# 57061
# 67526
# 82665
# 98651
# 113686
# 128548
# 143320
# 157247
# 169033
# 182380
# 193309
# 211881
#
# Disc length: 3007 seconds
# Revision: 2
# Processed by: cddbd v1.5.1PL2 Copyright (c) Steve Scherf et al.
# Submitted via: VisiTrax 2.9.10.228 - For more info visit www.synapsa.com
#
DISCID=ae0bbd10
DTITLE=Rogers, Kenny - For the good times
DYEAR=1998
DGENRE=Folk
TTITLE0=for the good times
TTITLE1=she even woke me up to say goodbye
TTITLE2=me and bobby McGee
TTITLE3=the king of oak street
TTITLE4=ticket to nowhere
TTITLE5=tell it all brother
TTITLE6=the way it used to be
TTITLE7=just dropped in
TTITLE8=heed the call
TTITLE9=church without a name
TTITLE10=but i know i love you
TTITLE11=poem for my little daddy
TTITLE12=sleep comes easy
TTITLE13=always leaving, always gone
TTITLE14=i believe in music
TTITLE15=Ruby, don't take your love to town
EXTD=
EXTT0=
EXTT1=
EXTT2=
EXTT3=
EXTT4=
EXTT5=
EXTT6=
EXTT7=
EXTT8=
EXTT9=
EXTT10=
EXTT11=
EXTT12=
EXTT13=
EXTT14=
EXTT15=
PLAYORDER=
